<svg xmlns="http://www.w3.org/2000/svg" viewBox="0 0 32 32" fill="none" stroke-linecap="round" stroke-linejoin="round">
  <path d="M22 21c-1.1-.6-2.2-1-3.1-.4l-1.4.9c-.8.5-2-.1-3.2-1.3l-2.5-2.5C10.6 16.5 9.9 15.3 10.5 14.5l.9-1.4c.6-.9.2-2-.4-3.1l-1.6-2.3C8.7 6.5 7.4 6.3 6.4 7.1 5 8.3 3.8 10 4 11.9c.5 4 3.5 9 7.5 13 4 4 9 7 13 7.5 1.9.2 3.6-1 4.8-2.4.8-1 .6-2.3-.6-3L22 21z" stroke="#0F2D6B" stroke-width="1.8"/>
  <path d="M22 4c3.3 0 6 2.7 6 6" stroke="#C9A84C" stroke-width="1.8"/>
  <path d="M22 8c1.1 0 2 .9 2 2" stroke="#C9A84C" stroke-width="1.8"/>
</svg>
